<?xml version="1.0" encoding="utf-8"?>
<!-- Generator: Adobe Illustrator 19.0.0, SVG Export Plug-In . SVG Version: 6.00 Build 0)  -->
<svg version="1.1" id="Layer_1" xmlns="http://www.w3.org/2000/svg" xmlns:xlink="http://www.w3.org/1999/xlink" x="0px" y="0px"
	 viewBox="0 0 500 500" style="enable-background:new 0 0 500 500;" xml:space="preserve">
<style type="text/css">
	.st0{fill:url(#XMLID_45_);}
	.st1{fill:url(#XMLID_46_);}
	.st2{fill:#231F20;}
</style>
<g id="XMLID_1_">
	
		<linearGradient id="XMLID_45_" gradientUnits="userSpaceOnUse" x1="7.528237e-002" y1="2.772738e-002" x2="1.0237" y2="2.772738e-002" gradientTransform="matrix(-91.0045 -48.6444 48.6444 -91.0045 375.6665 250.9408)">
		<stop  offset="0" style="stop-color:#F69220"/>
		<stop  offset="1" style="stop-color:#ED3229"/>
	</linearGradient>
	<path id="XMLID_3_" class="st0" d="M389.7,208.2c-11-2.2-21.5-4.2-32.7-2.9c-21.1,2.4-17,38.8-42.1,40.5
		c-15.8,1.1-35.1-7.6-50.6-10.5c7.7,1.5,14.5-9.4,18.1-14.6c5.4-7.9,9.3-16.8,16.8-23c4.1-3.4,9.8-5.2,15.2-4.8
		c8.8,0.6,17.4,2.9,25.9,4.8c9.4,2.1,18.9,3.9,28.3,5.9c7,1.5,14.1,3.2,21.1,4.5"/>
	
		<linearGradient id="XMLID_46_" gradientUnits="userSpaceOnUse" x1="2.341545e-002" y1="4.194968e-002" x2="0.9719" y2="4.194968e-002" gradientTransform="matrix(-98.505 -34.5533 34.5533 -98.505 279.1086 230.0201)">
		<stop  offset="0" style="stop-color:#15467A"/>
		<stop  offset="0.1581" style="stop-color:#106291"/>
		<stop  offset="0.4082" style="stop-color:#0987B1"/>
		<stop  offset="0.64" style="stop-color:#04A3C7"/>
		<stop  offset="0.8445" style="stop-color:#01B3D5"/>
		<stop  offset="1" style="stop-color:#00B9DA"/>
	</linearGradient>
	<path id="XMLID_4_" class="st1" d="M197.4,191.4c16.2-5.7,33-0.3,47.5,7.4c7.3,3.8,14.1,8.4,20.8,13.1c4.7,3.3,13.8,9.8,13.8,9.8
		s-3,4.7-6.3,7.9c-3.4,3.3-6.3,4.4-9,4.5c-0.5,0-1.1,0-1.6,0c-6.1-0.2-12.2-2.8-19.3-7c-16.7-10-45.8-49.5-63-21.6
		C184.7,198.2,190.7,193.8,197.4,191.4z"/>
	<path id="XMLID_5_" class="st2" d="M89.3,270.5c0,1.4-0.5,2.1-1.4,2.1c-0.7,0-1.5-0.4-2.4-1.3l-14.1-14.2v15.3h-3.8v-20.1
		c0-0.5,0.1-1,0.4-1.3c0.3-0.4,0.7-0.6,1.2-0.6c0.7,0,1.4,0.4,2.2,1.1l14.1,14.2v-15.3h3.8V270.5z"/>
	<path id="XMLID_8_" class="st2" d="M128.7,261.1c0,3.3-1,5.9-3.1,8.1c-2.1,2.1-4.7,3.2-8,3.2h-6.2c-3.2,0-5.9-1.1-8-3.2
		c-2.1-2.1-3.1-4.8-3.1-8.1c0-3.2,1-5.8,3.1-7.8c2.1-2,4.7-3,8-3h6.2c3.3,0,5.9,1,8,3C127.7,255.3,128.7,257.9,128.7,261.1z
		 M124.9,261.4c0-2.1-0.7-3.9-2-5.2c-1.4-1.4-3.1-2-5.2-2h-6.2c-2.1,0-3.8,0.7-5.2,2c-1.4,1.4-2,3.1-2,5.2c0,2.1,0.7,3.8,2,5.1
		c1.4,1.3,3.1,2,5.2,2h6.2c2.1,0,3.9-0.7,5.2-2C124.3,265.2,124.9,263.5,124.9,261.4z"/>
	<path id="XMLID_9_" class="st2" d="M166.2,250.3l-12.6,20.2c-0.9,1.4-1.7,2.2-2.4,2.2c-0.7,0-1.5-0.7-2.4-2.2l-12.3-20.2h4.9
		l9.8,16.4l9.9-16.4H166.2z"/>
	<path id="XMLID_12_" class="st2" d="M202.4,261.1c0,3.3-1,5.9-3.1,8.1c-2.1,2.1-4.7,3.2-8,3.2h-6.2c-3.2,0-5.9-1.1-8-3.2
		c-2.1-2.1-3.1-4.8-3.1-8.1c0-3.2,1-5.8,3.1-7.8c2.1-2,4.7-3,8-3h6.2c3.3,0,5.9,1,8,3C201.3,255.3,202.4,257.9,202.4,261.1z
		 M198.6,261.4c0-2.1-0.7-3.9-2-5.2c-1.4-1.4-3.1-2-5.2-2h-6.2c-2.1,0-3.8,0.7-5.2,2c-1.4,1.4-2,3.1-2,5.2c0,2.1,0.7,3.8,2,5.1
		c1.4,1.3,3.1,2,5.2,2h6.2c2.1,0,3.9-0.7,5.2-2C197.9,265.2,198.6,263.5,198.6,261.4z"/>
	<path id="XMLID_13_" class="st2" d="M240.3,272.4l-4.9,0l-3.7-6.2h-10.4l2.3-3.8h5.8l-3.8-6.4l-9.9,16.3h-4.9l12-19.9
		c0.3-0.5,0.7-1,1.3-1.4c0.6-0.5,1.2-0.7,1.7-0.7c0.6,0,1.1,0.2,1.7,0.7c0.5,0.4,0.9,0.9,1.3,1.4L240.3,272.4z"/>
	<rect id="XMLID_14_" x="249.2" y="250.3" class="st2" width="3.8" height="22.1"/>
	<path id="XMLID_15_" class="st2" d="M290.5,272.4h-5.7l-6.2-6.2h-8.3v-3.8h10.3c1.4,0,2.6-0.3,3.6-0.9c1.1-0.7,1.6-1.8,1.6-3.1
		c0-2.7-1.7-4.1-5.2-4.1h-12.6v18.2h-3.8v-22.1h15.8c2.8,0,5.1,0.6,6.9,1.8c2,1.4,3,3.4,3,6.2c0,1.8-0.6,3.4-1.7,4.8
		c-1.1,1.3-2.5,2.1-4.4,2.6L290.5,272.4z"/>
	<polygon id="XMLID_16_" class="st2" points="290.3,297.7 292,297.7 292,294.6 295.1,294.6 295.1,297.7 296.9,297.7 296.9,300.3 
		295.1,300.3 295.1,307.7 292,307.7 292,300.3 290.3,300.3 	"/>
	<path id="XMLID_17_" class="st2" d="M301.1,307.7h-3.2V301c0-2.2,1.3-3.3,4-3.3h4.3v2.6h-4.3c-0.5,0-0.7,0.2-0.7,0.7V307.7z"/>
	<path id="XMLID_18_" class="st2" d="M320.2,297.7v6.7c0,2.2-1.3,3.2-4,3.2h-4.9c-2.7,0-4-1.1-4-3.3v-6.7h3.2v6.8
		c0,0.3,0.3,0.5,0.8,0.5h4.9c0.5,0,0.7-0.2,0.7-0.5v-6.8H320.2z"/>
	<rect id="XMLID_19_" x="324.4" y="294" class="st2" width="3.2" height="13.7"/>
	<path id="XMLID_20_" class="st2" d="M339.1,303.5v-5.8h3.2v9.9c0,2.2-1.3,3.3-4,3.3h-8.6v-2.8h8.3c0.7,0,1-0.3,1-0.9v-1h-7.1
		c-1.9,0-2.8-0.9-2.8-2.6v-5.9h3.2v5.1c0,0.4,0.3,0.7,0.8,0.7H339.1z"/>
	<path id="XMLID_21_" class="st2" d="M362,303.5v-5.8h3.2v9.9c0,2.2-1.3,3.3-4,3.3h-8.6v-2.8h8.3c0.7,0,1-0.3,1-0.9v-1H355
		c-1.9,0-2.8-0.9-2.8-2.6v-5.9h3.2v5.1c0,0.4,0.3,0.7,0.8,0.7H362z"/>
	<path id="XMLID_24_" class="st2" d="M376.1,297.7c2.7,0,4,1.1,4,3.3v3.5c0,2.2-1.3,3.2-4,3.2h-5.1c-2.7,0-4-1.1-4-3.3V301
		c0-2.2,1.3-3.3,4-3.3H376.1z M370.9,300.3c-0.5,0-0.7,0.2-0.7,0.7v3.3c0,0.4,0.2,0.7,0.7,0.7h5.1c0.5,0,0.8-0.2,0.8-0.6V301
		c0-0.4-0.3-0.7-0.8-0.7H370.9z"/>
	<path id="XMLID_25_" class="st2" d="M394.6,297.7v6.7c0,2.2-1.3,3.2-4,3.2h-4.9c-2.7,0-4-1.1-4-3.3v-6.7h3.2v6.8
		c0,0.3,0.3,0.5,0.8,0.5h4.9c0.5,0,0.7-0.2,0.7-0.5v-6.8H394.6z"/>
	<path id="XMLID_26_" class="st2" d="M399.5,307.7h-3.2V301c0-2.2,1.3-3.3,4-3.3h4.3v2.6h-4.3c-0.5,0-0.7,0.2-0.7,0.7V307.7z"/>
	<path id="XMLID_27_" class="st2" d="M415.4,301.5c1.7,0,2.6,0.7,2.6,2.1v1.9c0,1.5-0.9,2.2-2.6,2.2h-9.8v-2.8h8.5
		c0.4,0,0.6-0.2,0.6-0.7c0-0.4-0.2-0.6-0.6-0.6h-6c-1.7,0-2.6-0.7-2.6-2.1v-1.6c0-1.5,0.9-2.2,2.6-2.2h9.6v2.6h-8.3
		c-0.4,0-0.6,0.2-0.6,0.6c0,0.4,0.2,0.6,0.6,0.6H415.4z"/>
	<rect id="XMLID_28_" x="419.4" y="305.6" class="st2" width="3.2" height="2.1"/>
	<rect id="XMLID_29_" x="424.3" y="305.6" class="st2" width="3.2" height="2.1"/>
	<rect id="XMLID_30_" x="429.3" y="305.6" class="st2" width="3.2" height="2.1"/>
</g>
</svg>
